<svg xmlns="http://www.w3.org/2000/svg" viewBox="0 0 77 76.204"><defs><style>.a{fill:#4279f4}.b{fill:#0028aa}.c{fill:#014bd1}.d{fill:#bedcff}.e{fill:#6ca1ff}.f{fill:#a1c3ff}</style></defs><title>kubeflow</title><path d="M21.86044,34.78144l1.70693,42.52082L54.28122,38.10489a2.82768,2.82768,0,0,1,3.96945-.48465l.02857.02265L77.4365,53.017,71.1896,25.6932Z" class="a" transform="translate(-0.4365 -8.89811)"/><path d="M24.6302,85.10189H51.874L35.14614,71.67955Z" class="b" transform="translate(-0.4365 -8.89811)"/><path d="M56.96046,43.8482,38.63609,67.229,58.15987,82.89185l18.51925-23.222Z" class="c" transform="translate(-0.4365 -8.89811)"/><path d="M16.72184,30.6802l.00222-.00442L32.83785,10.46845,6.85446,22.98175.4365,51.09743Z" class="d" transform="translate(-0.4365 -8.89811)"/><path d="M.79409,59.7282,18.0534,81.367,16.40933,40.14555Z" class="e" transform="translate(-0.4365 -8.89811)"/><path d="M66.17652,20.86279,41.3298,8.89811l-15.463,19.3916Z" class="f" transform="translate(-0.4365 -8.89811)"/></svg>